{"title":"Messiah S01 - S05 Crime Drama x264 RB58","uid":11046383,"size":5865566856,"categoryP":"video","categoryS":"tv_shows","magnet":"?xt=urn:btih:e9bc0b13c68343509fcff79edbf926f7e1a7ddb7&amp;dn=Messiah+S01+-+S05+Crime+Drama+x264+RB58&amp;tr=udp%3A%2F%2Ftracker.openbittorrent.com%3A80&amp;tr=udp%3A%2F%2Fopen.demonii.com%3A1337&amp;tr=udp%3A%2F%2Ftracker.coppersurfer.tk%3A6969&amp;tr=udp%3A%2F%2Fexodus.desync.com%3A6969","seeders":2,"leechers":0,"uploader":"RedBaron58","files":11,"time":1410912039,"description":"Messiah S01 - S05 Crime Drama x264 mp4\n  &lt;a href=&quot;\nhttp://www.imdb.com/title/tt0249301/&quot; rel=&quot;nofollow&quot; target=&quot;_NEW&quot;&gt;\nhttp://www.imdb.com/title/tt0249301/&lt;/a&gt; &lt;a href=&quot;\nhttp://www.imdb.com/title/tt0323236/&quot; rel=&quot;nofollow&quot; target=&quot;_NEW&quot;&gt;\nhttp://www.imdb.com/title/tt0323236/&lt;/a&gt; &lt;a href=&quot;\nhttp://www.imdb.com/title/tt0422744/&quot; rel=&quot;nofollow&quot; target=&quot;_NEW&quot;&gt;\nhttp://www.imdb.com/title/tt0422744/&lt;/a&gt; &lt;a href=&quot;\nhttp://www.imdb.com/title/tt0468515/&quot; rel=&quot;nofollow&quot; target=&quot;_NEW&quot;&gt;\nhttp://www.imdb.com/title/tt0468515/&lt;/a&gt; &lt;a href=&quot;\nhttp://www.imdb.com/title/tt1135047/&quot; rel=&quot;nofollow&quot; target=&quot;_NEW&quot;&gt;\nhttp://www.imdb.com/title/tt1135047/&lt;/a&gt;\n\nTrailer (S01)\n\n\nThank you for your kind comments and thumbs ups on my other torrents, your feedback is welcome.\n\n\nAbout the Series:\nMessiah (S01) A serial killer sets out to kill twelve men with the same names as the Apostles, in the same \nway that the original Apostles were killed according to tradition, e.g. St Bartholomew being flayed alive \nand St Peter crucified head down.\nMessiah (S02) Vengeance Is Mine, deals with a serial killer who murders all those implicated in the wrongful \nimprisonment of his or her father.\nMessiah (S03) The Promise, begins with a prison riot, in which Kate Beauchamp is held hostage and almost killed. \nFrom then on, everyone who threatened or harmed Beauchamp ends up dead.\nMessiah (S04) The Harrowing, deals with Metcalf and his team having to catch a killer who murders his or her \nvictims in elaborate / strange ways.\nMessiah (S05) The Rapture, Marc Warren is the new lead, starring as DCI Joseph Walker. The two-parter, which \nfeatures a crack den massacre, an acid attack, and a murder victim with her heart cut out.\n\n\nI hope you enjoy.\n\n\nTechnical: (All episodes are encoded to the same settings)\n\nGeneral\nComplete name                            : H:MessiahMessiah S01Messiah S01E01 The First Killings.mp4\nFormat                                   : MPEG-4\nFormat profile                           : Base Media / Version 2\nCodec ID                                 : mp42\nFile size                                : 530 MiB\nDuration                                 : 1h 14mn\nOverall bit rate mode                    : Variable\nOverall bit rate                         : 1 000 Kbps\nEncoded date                             : UTC 2014-09-10 14:41:02\nTagged date                              : UTC 2014-09-10 14:58:53\nWriting application                      : HandBrake 0.9.8 2012071700\n\nVideo\nID                                       : 1\nFormat                                   : AVC\nFormat/Info                              : Advanced Video Codec\nFormat profile                           : &lt;a class=&quot;__cf_email__&quot; href=&quot;/cdn-cgi/l/email-protection&quot; data-cfemail=&quot;b8f5d9d1d6f8f48b9688&quot;&gt;[email&amp;#160;protected]&lt;/a&gt;&lt;script data-cfhash='f9e31' type=&quot;text/javascript&quot;&gt;\n/* &lt;![CDATA[ */!function(){try{var t=&quot;currentScript&quot;in document?document.currentScript:function(){for(var t=document.getElementsByTagName(&quot;script&quot;),e=t.length;e--;)if(t[e].getAttribute(&quot;data-cfhash&quot;))return t[e]}();if(t&amp;&amp;t.previousSibling){var e,r,n,i,c=t.previousSibling,a=c.getAttribute(&quot;data-cfemail&quot;);if(a){for(e=&quot;&quot;,r=parseInt(a.substr(0,2),16),n=2;a.length-n;n+=2)i=parseInt(a.substr(n,2),16)^r,e+=String.fromCharCode(i);e=document.createTextNode(e),c.parentNode.replaceChild(e,c)}t.parentNode.removeChild(t);}}catch(u){}}()/* ]]&gt; */&lt;/script&gt;\nFormat settings, CABAC                   : Yes\nFormat settings, ReFrames                : 4 frames\nCodec ID                                 : avc1\nCodec ID/Info                            : Advanced Video Coding\nDuration                                 : 1h 14mn\nBit rate mode                            : Variable\nBit rate                                 : 900 Kbps\nWidth                                    : 702 pixels\nHeight                                   : 576 pixels\nDisplay aspect ratio                     : 1.733\nFrame rate mode                          : Constant\nFrame rate                               : 25.000 fps\nColor space                              : YUV\nChroma subsampling                       : 4:2:0\nBit depth                                : 8 bits\nScan type                                : Progressive\nBits/(Pixel*Frame)                       : 0.089\nStream size                              : 477 MiB (90%)\nWriting library                          : x264 core 120\nEncoding settings                        : cabac=1 / ref=1 / deblock=1:0:0\nEncoded date                             : UTC 2014-09-10 14:41:02\nTagged date                              : UTC 2014-09-10 14:58:53\nColor primaries                          : BT.601 NTSC\nTransfer characteristics                 : BT.709\nMatrix coefficients                      : BT.601\n\nAudio\nID                                       : 2\nFormat                                   : AAC\nFormat/Info                              : Advanced Audio Codec\nFormat profile                           : LC\nCodec ID                                 : 40\nDuration                                 : 1h 14mn\nBit rate mode                            : Variable\nBit rate                                 : 96.0 Kbps\nMaximum bit rate                         : 118 Kbps\nChannel(s)                               : 2 channels\nChannel positions                        : Front: L R\nSampling rate                            : 48.0 KHz\nCompression mode                         : Lossy\nDelay relative to video                  : 80ms\nStream size                              : 50.9 MiB (10%)\nLanguage                                 : English\nEncoded date                             : UTC 2014-09-10 14:41:02\nTagged date                              : UTC 2014-09-10 14:58:52","torrent":{"xt":"urn:btih:e9bc0b13c68343509fcff79edbf926f7e1a7ddb7","amp;dn":"Messiah+S01+-+S05+Crime+Drama+x264+RB58","amp;tr":["udp%3A%2F%2Ftracker.openbittorrent.com%3A80","udp%3A%2F%2Fopen.demonii.com%3A1337","udp%3A%2F%2Ftracker.coppersurfer.tk%3A6969","udp%3A%2F%2Fexodus.desync.com%3A6969"],"infoHash":"e9bc0b13c68343509fcff79edbf926f7e1a7ddb7","infoHashBuffer":{"type":"Buffer","data":[233,188,11,19,198,131,67,80,159,207,247,158,219,249,38,247,225,167,221,183]},"announce":[],"urlList":[]}}